<svg width="50" height="50" viewBox="0 0 50 50" fill="none" xmlns="http://www.w3.org/2000/svg">
	<rect x="1" y="1" width="48" height="48" rx="24" fill="white" />
	<rect x="1" y="1" width="48" height="48" rx="24" stroke="black" stroke-width="2" />
	<path d="M40.3066 43.878L39.0491 28.884L41.0452 29.7477C42.2153 30.254 43.4676 29.2242 43.1967 27.9784C43.0174 27.1536 42.6124 26.3948 42.0269 25.7868L40.5247 24.2268C40.1558 23.0125 38.9569 20.6762 37.1124 21.0451C35.268 21.414 35.4524 20.3073 35.7752 19.7078L39.0491 17.1717H33.1468L37.1124 14.6817H29.6424L28.4197 13.51C27.0738 12.2201 25.2816 11.5 23.4173 11.5L25.4923 13.1139L25.8561 13.801C26.0676 14.2006 25.7779 14.6817 25.3258 14.6817H23.7401L22.0612 14.1494C20.668 13.7076 19.2151 13.4828 17.7535 13.4828C17.3738 13.4828 17.2575 13.9974 17.6002 14.1608L18.7391 14.7036C19.3108 14.9761 19.1167 15.8345 18.4834 15.8345L16.0382 16.2148C15.7058 16.2666 15.6973 16.7423 16.0277 16.8059L17.93 17.1717C15.4433 18.4743 13.5522 20.6825 12.6476 23.3399L12.5811 23.5351L12.0485 22.5434C11.5973 21.7031 10.5677 21.3625 9.70434 21.7677C9.25458 21.9788 8.94014 22.4008 8.86644 22.8921L8.47244 25.5188C8.35406 26.308 8.06512 27.0619 7.62573 27.7281C7.1297 28.4801 6.80927 29.3864 7.03328 30.259C7.6011 32.4708 9.38864 30.9944 10.1833 31.7891L8.98441 43.7522" stroke="black" stroke-width="2" />
	<path d="M18.5773 24.452C18.5773 25.4961 16.6405 27.2631 16.1794 27.2631C15.1352 27.2631 15.4415 25.7892 15.8562 24.7287C16.2708 23.6681 17.1022 22.9887 17.9319 23.1616C18.808 23.8072 18.5773 24.0831 18.5773 24.452Z" fill="black" />
	<path d="M30.9437 26.6201C30.0583 26.0668 29.5861 23.4879 29.8305 23.0969C30.3838 22.2114 31.4714 23.2522 32.1511 24.1658C32.8308 25.0795 32.9663 26.1446 32.3801 26.7566C31.3683 27.1575 31.2566 26.8156 30.9437 26.6201Z" fill="black" />
	<path d="M20.663 38.6535C20.2046 38.367 18.0493 37.3391 17.2952 34.9177C16.5929 32.6623 17.0669 29.8437 18.0333 28.7392C19.0016 27.6326 19.7394 25.5571 25.3656 25.5571C29.3775 25.5571 30.2462 27.3563 30.8979 28.232C31.5495 29.1077 33.4816 32.9818 31.36 36.2556C30.0697 38.72 26.7956 40.1289 24.905 39.6678C23.8933 40.0686 20.9759 38.849 20.663 38.6535Z" fill="#535353" fill-opacity="0.64" />
	<path d="M22.5716 30.6938C22.3357 30.5504 22.0281 30.6254 21.8847 30.8614C21.7412 31.0974 21.8163 31.4049 22.0522 31.5484L22.3119 31.1211L22.5716 30.6938ZM27.1904 31.5436C27.4238 31.396 27.4933 31.0871 27.3456 30.8538C27.198 30.6204 26.8891 30.5509 26.6558 30.6986L26.9231 31.1211L27.1904 31.5436ZM24.6636 32.5506H24.1636V36.5623H24.6636H25.1636V32.5506H24.6636ZM24.6636 36.5623L24.5482 36.0758L23.5419 36.3145L23.6574 36.801L23.7728 37.2875L24.7791 37.0487L24.6636 36.5623ZM24.6636 36.5623L24.5482 37.0487L25.643 37.3085L25.7585 36.822L25.8739 36.3356L24.7791 36.0758L24.6636 36.5623ZM24.6636 32.5506L24.9233 32.1233L22.5716 30.6938L22.3119 31.1211L22.0522 31.5484L24.4039 32.9778L24.6636 32.5506ZM24.6636 32.5506L24.9309 32.9731L27.1904 31.5436L26.9231 31.1211L26.6558 30.6986L24.3963 32.128L24.6636 32.5506ZM25.7585 36.822L25.643 37.3085C26.8237 37.5887 28.0609 37.1717 28.8311 36.2341L28.4448 35.9167L28.0584 35.5993C27.5306 36.2418 26.6829 36.5275 25.8739 36.3356L25.7585 36.822ZM23.6574 36.801L23.5419 36.3145C22.6577 36.5244 21.7289 36.2424 21.1105 35.5765L20.7441 35.9167L20.3777 36.2569C21.2412 37.1868 22.5381 37.5805 23.7728 37.2875L23.6574 36.801Z" fill="black" />
</svg>
